<?xml version="1.0" standalone="no"?>
<!DOCTYPE svg PUBLIC "-//W3C//DTD SVG 20010904//EN"
 "http://www.w3.org/TR/2001/REC-SVG-20010904/DTD/svg10.dtd">
<svg version="1.0" xmlns="http://www.w3.org/2000/svg"
 width="1200.000000pt" height="1200.000000pt" viewBox="0 0 1200.000000 1200.000000"
 preserveAspectRatio="xMidYMid meet">
<metadata>
Created by potrace 1.11, written by Peter Selinger 2001-2013
</metadata>
<g transform="translate(0.000000,1200.000000) scale(0.100000,-0.100000)"
fill="#000000" stroke="none">
<path d="M6058 10195 c-2 -1 -41 -5 -88 -9 -151 -12 -193 -16 -285 -31 -145
-24 -179 -30 -222 -44 -17 -5 -34 -7 -37 -3 -3 3 -6 0 -6 -7 0 -7 -4 -10 -9
-7 -5 3 -58 -10 -118 -30 l-109 -36 -3 -47 c-16 -230 25 -390 122 -478 67 -61
152 -90 286 -99 181 -13 639 -5 712 12 13 3 31 6 39 6 8 0 40 4 70 10 30 5 62
11 70 13 68 11 233 65 242 79 4 6 8 8 8 3 0 -8 64 17 97 39 13 8 24 13 25 12
7 -6 67 56 62 63 -3 5 -1 9 5 9 6 0 14 15 19 33 10 36 9 80 -13 371 -5 67 -28
121 -51 121 -5 0 -15 4 -22 9 -12 7 -786 18 -794 11z"/>
<path d="M7757 9766 c-15 -8 -53 -30 -85 -49 -31 -19 -113 -68 -182 -108 -236
-139 -481 -330 -656 -510 -115 -120 -148 -183 -148 -283 1 -100 28 -161 151
-344 57 -85 116 -178 130 -206 14 -28 27 -52 28 -54 9 -10 523 242 760 373
371 205 456 270 515 390 36 74 42 128 24 214 -35 167 -233 464 -371 555 -50
33 -126 43 -166 22z"/>
<path d="M4515 9578 c-48 -15 -75 -30 -69 -40 3 -4 0 -8 -5 -8 -6 0 -11 -6
-11 -14 0 -7 -7 -20 -16 -27 -16 -13 -39 -58 -36 -71 1 -5 -3 -8 -9 -8 -5 0
-7 -4 -4 -10 3 -5 2 -10 -3 -10 -5 0 -19 -34 -30 -75 -23 -83 -25 -204 -4
-241 6 -12 9 -24 6 -26 -7 -8 28 -78 38 -78 5 0 6 -4 3 -10 -3 -5 -1 -10 5
-10 6 0 9 -4 6 -8 -3 -5 4 -15 15 -22 10 -8 19 -20 19 -28 0 -7 5 -10 11 -7 6
4 13 -2 16 -14 3 -11 9 -18 14 -15 5 3 9 1 9 -4 0 -10 87 -55 107 -55 7 0 13
-3 13 -7 0 -10 104 -13 155 -5 51 9 59 11 90 23 50 20 75 35 75 44 0 4 7 8 15
8 8 0 15 5 15 10 0 6 8 10 17 10 9 0 13 3 10 6 -3 4 5 15 18 26 14 11 23 23
20 28 -3 4 2 11 11 14 8 3 12 10 9 16 -3 5 -1 10 5 10 9 0 26 33 34 65 2 6 9
24 16 40 13 30 19 202 8 240 -3 11 -9 35 -13 53 -4 17 -12 32 -17 32 -5 0 -6
5 -2 12 4 6 -1 17 -11 25 -11 7 -16 13 -12 13 3 0 -4 11 -17 25 -13 14 -28 25
-34 25 -6 0 -12 4 -14 10 -1 5 -14 11 -28 14 -14 2 -25 5 -25 6 0 1 -7 3 -15
5 -8 2 -25 6 -37 9 -102 26 -122 28 -223 31 -52 1 -108 -2 -125 -7z"/>
<path d="M1752 9378 c-246 -28 -425 -282 -371 -528 25 -115 116 -238 219 -294
180 -98 408 -59 541 93 78 87 112 181 111 301 -2 225 -174 411 -402 432 -19 2
-63 0 -98 -4z"/>
<path d="M5849 9006 c-2 -2 -30 -6 -63 -10 -100 -10 -197 -41 -309 -97 -180
-91 -217 -197 -102 -298 50 -43 129 -76 260 -106 107 -25 149 -29 300 -29 151
0 262 19 345 57 62 29 133 102 148 153 28 95 -16 260 -76 282 -15 5 -56 10
-92 11 -36 1 -99 8 -140 17 -68 15 -261 29 -271 20z"/>
<path d="M2435 8787 c-32 -100 -63 -188 -68 -194 -5 -7 -7 -13 -4 -13 3 0 0
-15 -8 -34 -8 -18 -11 -36 -8 -40 4 -3 2 -6 -3 -6 -5 0 -10 -9 -11 -20 -1 -11
2 -18 7 -15 4 3 10 2 12 -3 1 -4 39 -18 83 -32 44 -13 85 -27 90 -30 6 -3 53
-19 105 -35 91 -27 126 -48 114 -66 -3 -5 0 -9 7 -9 7 0 10 -2 7 -5 -3 -3 3
-34 14 -68 22 -70 23 -75 40 -139 6 -27 15 -48 20 -48 5 0 7 -4 4 -9 -4 -5 -1
-22 6 -38 6 -15 11 -31 10 -35 -1 -4 3 -20 10 -35 6 -15 12 -35 13 -43 3 -17
73 -258 82 -280 3 -8 7 -19 8 -25 2 -5 15 -50 30 -100 15 -49 30 -103 35 -120
24 -86 49 -164 59 -182 5 -11 8 -23 6 -25 -3 -3 2 -25 11 -49 8 -24 17 -51 19
-59 9 -44 39 -136 46 -146 5 -6 6 -13 4 -16 -3 -3 0 -18 6 -34 7 -16 13 -36
14 -44 2 -8 13 -46 25 -85 12 -38 28 -94 36 -123 8 -30 18 -62 24 -72 5 -9 7
-20 4 -23 -3 -3 2 -19 10 -36 9 -17 16 -34 16 -38 -1 -20 25 -103 32 -103 5 0
7 -4 4 -8 -4 -7 18 -91 42 -162 3 -8 4 -21 3 -27 -1 -7 4 -13 10 -13 7 0 10
-3 7 -6 -3 -3 3 -33 14 -67 10 -34 22 -75 25 -92 3 -16 8 -32 12 -35 4 -3 7
-12 7 -20 0 -8 3 -22 6 -30 12 -31 40 -126 45 -149 2 -13 9 -34 15 -45 6 -12
11 -22 10 -23 -1 -2 -1 -5 -1 -8 1 -3 2 -8 3 -12 1 -9 26 -91 34 -113 3 -8 7
-24 9 -35 2 -11 6 -27 10 -35 9 -20 9 -20 17 -62 5 -21 12 -38 16 -38 4 0 7
-6 7 -12 -2 -26 16 -88 25 -88 5 0 7 -4 4 -9 -3 -5 5 -44 19 -87 14 -43 28
-93 31 -111 3 -18 10 -33 16 -33 5 0 7 -4 4 -9 -4 -5 -1 -22 5 -38 6 -15 12
-35 15 -43 34 -136 73 -261 84 -274 5 -5 6 -15 3 -22 -3 -8 -1 -14 4 -14 5 0
10 -6 10 -12 0 -25 64 -158 75 -158 5 0 7 -3 6 -7 -3 -13 24 -63 34 -63 4 0 7
-3 6 -7 -5 -14 36 -72 45 -66 6 3 7 2 4 -4 -3 -5 9 -27 28 -49 19 -21 35 -43
35 -47 0 -5 4 -5 10 -2 6 3 10 -1 10 -10 0 -9 5 -13 10 -10 6 3 10 -1 10 -9 0
-9 3 -16 8 -16 4 0 21 -12 38 -27 59 -54 188 -131 227 -137 7 -1 17 -4 22 -7
6 -4 24 -10 40 -14 17 -5 35 -9 40 -11 6 -1 30 -7 55 -12 53 -10 3368 -9 3445
2 28 4 68 11 90 17 49 14 71 19 110 26 17 2 35 8 40 12 6 4 29 13 53 21 23 7
42 16 42 19 0 4 10 7 21 8 12 1 29 8 38 16 9 8 25 17 37 21 11 3 29 14 40 24
10 9 32 24 47 32 29 15 177 150 165 150 -4 0 7 15 23 33 56 59 132 238 164
387 3 11 8 30 11 43 3 12 7 29 9 37 1 8 5 22 8 30 4 8 8 24 10 35 2 11 7 27
10 35 7 16 18 75 20 103 1 9 5 17 9 17 4 0 7 8 7 18 0 23 5 44 14 60 5 6 6 16
2 21 -3 5 -1 12 4 15 4 3 12 25 16 48 4 24 9 48 11 53 9 29 57 222 59 235 1 8
7 26 12 40 6 14 9 32 8 40 -1 8 1 17 4 20 6 4 43 140 57 210 2 14 7 32 10 40
3 8 8 29 11 45 3 17 9 38 14 48 5 9 7 17 5 17 -3 0 1 17 8 38 7 20 12 45 10
55 -1 9 1 17 6 17 6 0 19 51 25 101 1 9 5 21 9 28 4 6 9 21 12 34 2 12 27 110
54 217 61 237 62 241 63 260 0 8 3 20 8 25 6 9 12 39 25 125 6 39 5 172 -1
200 -3 14 -7 39 -10 57 -4 34 -31 118 -43 137 -4 6 -7 13 -8 16 -11 37 -18 50
-25 50 -5 0 -9 5 -9 11 0 5 -11 27 -25 47 -14 20 -25 32 -25 27 0 -6 -6 1 -13
15 -8 14 -19 24 -25 22 -7 -1 -12 5 -12 13 0 8 -3 15 -7 15 -5 0 -23 13 -42
29 -19 17 -38 28 -43 25 -4 -3 -8 -1 -8 5 0 24 -201 95 -301 106 -24 3 -116 8
-204 10 -236 8 -315 12 -320 17 -2 2 29 38 70 80 41 41 71 79 67 83 -4 3 0 5
8 3 8 -2 14 3 13 9 -2 7 1 12 5 10 8 -2 148 141 152 155 1 3 21 26 43 51 55
58 123 178 140 246 15 57 8 142 -12 149 -6 2 -9 7 -6 12 7 11 -45 61 -56 54
-5 -3 -9 -1 -9 3 0 19 -114 10 -180 -14 -8 -3 -24 -7 -35 -9 -11 -1 -78 -16
-150 -33 -71 -17 -164 -39 -205 -48 -41 -9 -77 -19 -80 -22 -3 -3 -18 -7 -35
-9 -16 -2 -93 -19 -170 -37 -309 -74 -392 -94 -427 -100 -21 -4 -38 -11 -38
-17 0 -5 -4 -7 -9 -3 -15 8 -125 -37 -174 -72 -95 -66 -183 -254 -187 -394 0
-18 10 -18 -175 -4 -100 8 -162 12 -186 14 -14 1 -17 20 -21 134 -5 151 -20
199 -74 246 -47 42 -102 54 -207 48 -87 -6 -87 -6 -185 -70 -107 -70 -203
-147 -297 -238 l-60 -58 -55 4 c-30 2 -91 6 -135 10 -44 3 -109 8 -145 11 -36
2 -99 7 -140 10 -41 3 -91 6 -111 7 -29 1 -35 5 -31 19 5 22 -14 135 -35 203
-102 328 -435 524 -732 430 -188 -60 -379 -234 -546 -497 l-29 -47 -61 4
c-105 7 -221 16 -251 20 -16 2 -49 4 -74 4 -48 1 -59 13 -73 81 -17 75 -31
120 -39 120 -5 0 -7 4 -4 9 3 5 1 24 -5 42 -11 34 -14 45 -19 64 -2 6 -11 33
-20 60 -9 28 -17 53 -18 58 -1 8 -23 85 -78 265 -28 91 -38 112 -54 113 -23 2
-29 3 -50 12 -37 17 -317 109 -339 112 -13 2 -28 10 -32 17 -5 7 -9 10 -9 6 0
-4 -19 0 -42 8 -50 18 -53 19 -96 29 -18 4 -35 12 -38 16 -3 5 -15 9 -27 9
-20 0 -28 -20 -82 -183z m1182 -1435 c9 -20 35 -61 56 -91 216 -295 574 -341
1133 -146 197 69 214 78 258 146 14 22 22 25 54 22 20 -1 66 -5 102 -7 36 -2
106 -8 155 -12 50 -4 102 -8 118 -8 27 -1 27 -2 28 -68 1 -38 2 -71 3 -75 1
-5 6 -23 10 -42 33 -138 132 -239 271 -276 56 -15 256 -22 310 -11 11 2 58 7
105 10 47 4 101 9 120 11 19 2 64 7 98 10 151 14 182 55 185 243 l2 113 85 -6
c185 -12 311 -21 345 -24 6 -1 12 -9 13 -18 2 -22 10 -58 12 -58 1 0 3 -8 5
-17 6 -33 28 -93 38 -105 5 -7 7 -13 4 -13 -3 0 3 -25 14 -56 11 -30 17 -60
13 -66 -4 -7 18 -8 72 -4 82 6 209 41 239 66 9 8 24 15 33 16 8 2 18 8 22 14
4 7 11 12 16 12 17 0 123 76 116 83 -4 4 -2 6 3 4 18 -4 45 13 45 29 0 8 3 13
6 9 3 -3 20 7 38 24 30 29 33 29 111 25 44 -2 81 -4 83 -5 1 -1 -5 -16 -15
-33 -9 -18 -18 -35 -18 -38 0 -3 -8 -19 -18 -36 -9 -17 -13 -34 -10 -38 4 -3
2 -6 -4 -6 -6 0 -14 -12 -18 -27 -5 -16 -10 -32 -11 -38 -58 -182 -77 -340
-60 -511 7 -80 8 -82 30 -175 22 -95 58 -170 101 -212 21 -21 40 -35 42 -33 3
2 13 -3 24 -12 11 -9 23 -16 27 -16 4 1 19 -7 34 -17 14 -10 33 -19 41 -19 9
0 19 -5 22 -10 4 -6 11 -8 16 -5 5 4 9 1 9 -4 0 -6 3 -10 8 -9 4 1 30 -6 58
-15 49 -17 71 -23 124 -34 41 -8 194 -10 215 -3 11 4 33 10 49 14 25 6 28 5
21 -11 -4 -10 -8 -25 -10 -33 -3 -8 -12 -44 -21 -80 -9 -36 -17 -72 -18 -80
-1 -9 -5 -21 -10 -28 -4 -6 -4 -16 -1 -22 3 -5 2 -10 -2 -10 -5 0 -9 -8 -10
-17 0 -10 -8 -45 -18 -78 -9 -33 -18 -68 -21 -77 -2 -10 -7 -28 -10 -40 -9
-38 -12 -53 -13 -57 -1 -3 -30 39 -64 92 -35 53 -68 93 -73 89 -5 -4 -6 -3 -2
2 8 9 -108 166 -123 166 -5 0 -9 -7 -9 -15 0 -8 -4 -15 -8 -15 -10 0 -72 -87
-72 -100 0 -6 -4 -10 -8 -10 -4 0 -19 -18 -32 -40 -14 -22 -28 -40 -32 -40 -5
0 -8 -6 -8 -14 0 -8 -4 -16 -8 -18 -16 -6 -177 -240 -174 -252 2 -6 1 -8 -3
-4 -8 7 -195 -245 -195 -262 0 -6 -4 -10 -9 -10 -17 0 -61 -117 -61 -162 0
-42 10 -62 49 -103 46 -48 127 -69 234 -61 120 9 197 16 240 21 28 3 37 1 37
-10 0 -8 -9 -15 -20 -15 -11 0 -20 -5 -20 -11 0 -5 -4 -8 -9 -4 -5 3 -12 1
-16 -5 -4 -6 -11 -8 -16 -5 -5 4 -15 3 -21 -2 -13 -8 -18 -9 -78 -21 -19 -4
-785 -7 -1701 -7 -1397 0 -1669 2 -1682 14 -10 7 -17 11 -17 7 0 -7 -33 19
-61 49 -28 28 -20 37 41 41 30 2 71 6 90 9 19 3 51 8 70 10 19 2 51 7 70 11
19 4 38 7 42 6 4 -1 31 3 60 8 29 6 67 13 83 16 42 8 60 12 60 14 0 1 14 3 30
5 32 4 70 12 70 15 0 1 14 3 30 4 52 5 186 46 203 62 23 23 19 162 -13 399 -1
11 -3 20 -4 20 -1 0 -4 23 -7 50 -2 28 -8 64 -13 80 -5 17 -15 63 -22 103 -7
39 -16 72 -21 72 -5 0 -7 4 -4 8 6 10 -3 48 -38 162 -15 47 -28 93 -31 103 -2
9 -7 23 -12 30 -4 6 -8 17 -8 22 -1 20 -29 85 -37 85 -4 0 -7 3 -6 8 3 11 -20
50 -50 83 -64 72 -128 73 -297 4 -11 -5 -22 -9 -25 -10 -25 -8 -68 -27 -82
-35 -10 -6 -22 -10 -28 -10 -6 0 -62 -25 -126 -55 -64 -30 -119 -55 -121 -55
-3 0 -17 -9 -31 -19 -15 -10 -31 -19 -35 -19 -9 0 -99 -44 -107 -52 -3 -3 -27
-17 -55 -31 -49 -26 -50 -27 -49 -73 0 -29 -4 -45 -10 -43 -6 2 -12 9 -12 15
-1 7 -3 14 -4 17 -1 3 -3 9 -4 14 0 5 -4 12 -8 16 -4 4 -4 13 -1 21 3 8 0 14
-7 14 -6 0 -8 4 -5 10 3 5 -1 22 -9 38 -8 16 -13 32 -10 34 2 3 -3 21 -11 41
-8 21 -12 37 -8 37 4 0 2 5 -5 12 -7 7 -12 22 -12 34 0 13 -4 25 -10 29 -5 3
-7 12 -3 20 3 8 1 15 -4 15 -5 0 -9 8 -10 18 -1 16 -28 119 -41 152 -3 8 -6
18 -7 23 -2 4 -3 8 -5 10 -1 1 -3 10 -6 20 -2 9 -6 25 -8 35 -3 9 -5 18 -5 20
-1 1 -1 4 -1 7 0 3 -6 21 -14 40 -9 20 -15 36 -15 38 1 1 -5 22 -12 47 -7 25
-13 47 -14 50 -1 3 -7 25 -15 50 -17 56 -15 52 -37 130 -10 36 -20 67 -23 70
-3 3 -6 14 -8 25 -2 11 -10 40 -19 65 -8 25 -17 55 -19 67 -2 12 -9 34 -14 48
-5 14 -7 25 -4 25 4 0 1 7 -6 15 -7 8 -9 15 -4 15 4 0 3 5 -4 12 -7 7 -12 22
-12 34 0 13 -5 26 -10 29 -6 4 -8 11 -5 16 4 5 3 15 -2 22 -8 12 -13 32 -15
55 -1 6 -5 12 -10 12 -5 0 -7 4 -4 9 4 5 1 22 -6 38 -6 15 -10 33 -9 40 1 6
-3 14 -9 18 -5 3 -10 16 -10 29 0 12 -3 26 -7 30 -5 4 -9 12 -9 17 -1 5 -3 10
-4 12 -1 1 -4 11 -6 22 -6 41 -10 55 -17 61 -11 11 -8 56 3 49 5 -3 17 -23 27
-43z"/>
<path d="M5005 6905 c-27 -7 -59 -11 -71 -9 -54 10 -438 -189 -608 -315 -130
-96 -175 -205 -126 -306 44 -91 132 -99 391 -35 331 82 668 278 743 433 47 98
38 147 -36 190 -87 50 -202 67 -293 42z"/>
<path d="M6997 6404 c-1 -1 -42 -5 -92 -8 -189 -13 -352 -53 -504 -123 -31
-15 -58 -27 -61 -27 -5 -1 -163 -87 -235 -128 -16 -9 -37 -20 -45 -24 -68 -33
-390 -220 -416 -242 -29 -24 -32 -32 -29 -67 2 -22 7 -94 10 -160 15 -293 21
-369 40 -470 25 -132 51 -201 106 -281 56 -81 112 -131 189 -168 63 -30 69
-31 205 -31 126 0 350 11 408 20 12 2 53 6 91 10 38 4 79 9 90 10 68 12 205
36 227 40 69 13 208 59 246 81 100 58 148 144 160 283 14 157 7 811 -12 1116
-12 181 -7 177 -220 173 -86 -2 -157 -4 -158 -4z"/>
<path d="M4940 3602 c-255 -16 -493 -140 -653 -342 -230 -289 -257 -693 -68
-1014 54 -92 147 -196 233 -261 62 -46 198 -117 260 -136 134 -40 323 -52 438
-29 330 67 578 280 688 592 36 101 42 135 47 263 7 196 -46 380 -158 545 -77
113 -240 247 -373 306 -115 51 -293 84 -414 76z m160 -562 c102 -34 160 -86
210 -185 110 -220 -47 -487 -296 -503 -114 -7 -207 31 -284 115 -63 69 -93
145 -93 238 0 104 31 175 107 250 100 98 227 128 356 85z"/>
<path d="M7555 3595 c-5 -2 -44 -11 -85 -20 -254 -58 -484 -248 -599 -497 -54
-116 -72 -194 -78 -333 -14 -328 128 -609 399 -791 198 -133 473 -180 708
-120 409 103 685 458 681 875 -3 283 -120 524 -341 702 -90 72 -254 149 -375
175 -32 7 -293 15 -310 9z m277 -567 c70 -32 138 -100 174 -175 25 -51 29 -69
29 -148 0 -76 -4 -99 -26 -146 -37 -79 -87 -130 -166 -170 -62 -31 -74 -34
-157 -34 -80 0 -98 3 -151 29 -75 37 -140 103 -174 175 -21 47 -26 70 -26 146
0 78 4 97 27 145 47 94 120 160 211 191 75 26 186 20 259 -13z"/>
</g>
</svg>
